<svg xmlns="http://www.w3.org/2000/svg" xmlns:xlink="http://www.w3.org/1999/xlink" width="500" zoomAndPan="magnify" viewBox="0 0 375 374.999991" height="500" preserveAspectRatio="xMidYMid meet" version="1.0"><defs><clipPath id="fe5b3644bd"><path d="M 67.511719 37.5 L 327.761719 37.5 L 327.761719 337.5 L 67.511719 337.5 Z M 67.511719 37.5 " clip-rule="nonzero"/></clipPath><clipPath id="3c107ca578"><path d="M 158.609375 148.621094 L 239.609375 148.621094 L 239.609375 226.621094 L 158.609375 226.621094 Z M 158.609375 148.621094 " clip-rule="nonzero"/></clipPath></defs><g clip-path="url(#fe5b3644bd)"><path fill="#ffffff" d="M 203.039062 40.710938 L 262.664062 75.078125 L 322.292969 109.445312 L 327.761719 112.574219 L 327.761719 124.960938 L 322.292969 128.09375 L 257.261719 165.589844 L 197.636719 131.222656 L 148.945312 159.328125 L 148.945312 215.605469 L 197.636719 243.710938 L 257.261719 209.34375 L 278.9375 221.867188 C 295.210938 231.257812 311.484375 240.648438 327.761719 250.039062 L 327.761719 262.425781 L 322.292969 265.554688 L 262.664062 299.921875 L 203.039062 334.289062 L 197.636719 337.417969 L 192.234375 334.289062 L 175.957031 324.898438 L 205.773438 307.714844 C 235.585938 290.53125 265.398438 273.347656 295.144531 256.164062 L 257.195312 234.320312 L 159.683594 290.664062 L 151.546875 295.324219 L 138.007812 303.117188 L 132.605469 299.988281 L 72.980469 265.6875 L 67.511719 262.492188 L 67.511719 112.640625 L 72.980469 109.511719 L 132.605469 75.144531 L 138.007812 72.015625 L 143.410156 75.144531 L 257.195312 140.746094 L 295.144531 118.902344 L 251.792969 93.925781 L 219.578125 75.210938 L 197.636719 62.558594 L 175.957031 50.035156 L 192.234375 40.710938 L 197.636719 37.582031 Z M 175.957031 256.296875 L 127.136719 228.125 L 127.136719 147.007812 L 175.957031 118.835938 L 138.007812 96.988281 L 89.320312 125.09375 L 89.320312 250.039062 L 138.007812 278.144531 Z M 175.957031 256.296875 " fill-opacity="1" fill-rule="evenodd"/></g><g clip-path="url(#3c107ca578)"><path fill="#ffffff" d="M 185.757812 209.917969 L 185.757812 226.621094 L 178.855469 222.640625 L 176.554688 221.300781 L 176.554688 209.902344 L 185.757812 209.902344 Z M 239.59375 189.777344 L 239.59375 164.277344 L 237.292969 162.957031 L 230.390625 158.972656 L 230.390625 174.066406 L 185.757812 174.066406 L 185.757812 148.621094 L 178.855469 152.605469 L 176.554688 153.925781 L 176.554688 183.242188 L 230.390625 183.242188 L 230.390625 216.253906 L 237.292969 212.269531 L 239.59375 210.949219 Z M 167.824219 169.5625 L 167.824219 158.972656 L 160.925781 162.957031 L 158.625 164.277344 L 158.625 210.949219 L 160.925781 212.269531 L 167.824219 216.253906 L 167.824219 201.160156 L 212.457031 201.160156 L 212.457031 226.621094 L 219.359375 222.640625 L 221.660156 221.320312 L 221.660156 192.003906 L 167.824219 192.003906 Z M 212.457031 148.621094 L 219.359375 152.605469 L 221.660156 153.925781 L 221.660156 165.328125 L 212.457031 165.328125 Z M 212.457031 148.621094 " fill-opacity="1" fill-rule="evenodd"/></g></svg>